<mxfile host="app.diagrams.net" agent="Mozilla/5.0 (X11; Ubuntu; Linux x86_64; rv:126.0) Gecko/20100101 Firefox/126.0" version="24.7.12">
  <diagram name="Page-1" id="jYja321TO4npNnZUXKt9">
    <mxGraphModel dx="2095" dy="2323" grid="1" gridSize="10" guides="1" tooltips="1" connect="1" arrows="1" fold="1" page="1" pageScale="1" pageWidth="850" pageHeight="1100" math="0" shadow="0">
      <root>
        <mxCell id="0" />
        <mxCell id="1" parent="0" />
        <mxCell id="ixGaKLChyozuG7cod_pc-9" style="edgeStyle=orthogonalEdgeStyle;rounded=0;orthogonalLoop=1;jettySize=auto;html=1;exitX=1;exitY=0.5;exitDx=0;exitDy=0;entryX=0;entryY=0.5;entryDx=0;entryDy=0;" parent="1" source="ixGaKLChyozuG7cod_pc-1" target="ixGaKLChyozuG7cod_pc-8" edge="1">
          <mxGeometry relative="1" as="geometry" />
        </mxCell>
        <mxCell id="ixGaKLChyozuG7cod_pc-10" value="/initialpose3d" style="edgeLabel;html=1;align=center;verticalAlign=middle;resizable=0;points=[];fontFamily=Helvetica;fontSize=11;fontColor=default;labelBackgroundColor=default;fillColor=none;gradientColor=none;" parent="ixGaKLChyozuG7cod_pc-9" vertex="1" connectable="0">
          <mxGeometry y="1" relative="1" as="geometry">
            <mxPoint x="49" y="30" as="offset" />
          </mxGeometry>
        </mxCell>
        <mxCell id="ixGaKLChyozuG7cod_pc-1" value="pose_initializer" style="rounded=1;whiteSpace=wrap;html=1;fillColor=#dae8fc;strokeColor=#6c8ebf;" parent="1" vertex="1">
          <mxGeometry x="360" y="380" width="120" height="60" as="geometry" />
        </mxCell>
        <mxCell id="ixGaKLChyozuG7cod_pc-2" value="接收来自GNSS的粗略初始位姿&lt;div&gt;传递给ndt_scan_matcher&lt;/div&gt;&lt;div&gt;发送初始位姿给ekf_localizer&lt;/div&gt;" style="text;html=1;align=center;verticalAlign=middle;whiteSpace=wrap;rounded=0;" parent="1" vertex="1">
          <mxGeometry x="110" y="347.5" width="190" height="85" as="geometry" />
        </mxCell>
        <mxCell id="ixGaKLChyozuG7cod_pc-3" value="" style="endArrow=classic;html=1;rounded=0;entryX=0.5;entryY=0;entryDx=0;entryDy=0;exitX=0.5;exitY=1;exitDx=0;exitDy=0;" parent="1" source="ixGaKLChyozuG7cod_pc-6" target="ixGaKLChyozuG7cod_pc-1" edge="1">
          <mxGeometry width="50" height="50" relative="1" as="geometry">
            <mxPoint x="420" y="280" as="sourcePoint" />
            <mxPoint x="460" y="460" as="targetPoint" />
          </mxGeometry>
        </mxCell>
        <mxCell id="ixGaKLChyozuG7cod_pc-4" value="/" style="edgeLabel;html=1;align=center;verticalAlign=middle;resizable=0;points=[];" parent="ixGaKLChyozuG7cod_pc-3" vertex="1" connectable="0">
          <mxGeometry x="0.0114" y="2" relative="1" as="geometry">
            <mxPoint as="offset" />
          </mxGeometry>
        </mxCell>
        <mxCell id="ixGaKLChyozuG7cod_pc-5" value="&lt;div style=&quot;color: rgb(204, 204, 204); font-family: &amp;quot;Droid Sans Mono&amp;quot;, &amp;quot;monospace&amp;quot;, monospace; font-weight: normal; font-size: 14px; line-height: 19px; white-space: pre;&quot;&gt;&lt;div&gt;&lt;font color=&quot;#000000&quot;&gt;&lt;span style=&quot;background-color: rgb(255, 255, 255);&quot;&gt;/sensing/gnss/pose_with_covariance&lt;/span&gt;&lt;/font&gt;&lt;/div&gt;&lt;/div&gt;" style="edgeLabel;html=1;align=center;verticalAlign=middle;resizable=0;points=[];" parent="ixGaKLChyozuG7cod_pc-3" vertex="1" connectable="0">
          <mxGeometry x="0.0114" y="1" relative="1" as="geometry">
            <mxPoint as="offset" />
          </mxGeometry>
        </mxCell>
        <mxCell id="ixGaKLChyozuG7cod_pc-6" value="gnss_poser" style="rounded=1;whiteSpace=wrap;html=1;fillColor=#e1d5e7;strokeColor=#9673a6;" parent="1" vertex="1">
          <mxGeometry x="360" y="210" width="120" height="60" as="geometry" />
        </mxCell>
        <mxCell id="ixGaKLChyozuG7cod_pc-26" style="edgeStyle=orthogonalEdgeStyle;rounded=0;orthogonalLoop=1;jettySize=auto;html=1;exitX=0.5;exitY=1;exitDx=0;exitDy=0;" parent="1" edge="1">
          <mxGeometry relative="1" as="geometry">
            <mxPoint x="1100" y="700" as="targetPoint" />
            <Array as="points">
              <mxPoint x="1100" y="610" />
              <mxPoint x="1100" y="610" />
            </Array>
            <mxPoint x="1100" y="550" as="sourcePoint" />
          </mxGeometry>
        </mxCell>
        <mxCell id="ixGaKLChyozuG7cod_pc-27" value="&lt;div&gt;/ndt_pose&lt;/div&gt;发布ndt匹配结果pose" style="edgeLabel;html=1;align=center;verticalAlign=middle;resizable=0;points=[];fontFamily=Helvetica;fontSize=11;fontColor=default;labelBackgroundColor=default;fillColor=none;gradientColor=none;" parent="ixGaKLChyozuG7cod_pc-26" vertex="1" connectable="0">
          <mxGeometry x="0.2784" y="2" relative="1" as="geometry">
            <mxPoint x="-2" y="-16" as="offset" />
          </mxGeometry>
        </mxCell>
        <mxCell id="ixGaKLChyozuG7cod_pc-28" style="edgeStyle=orthogonalEdgeStyle;rounded=0;orthogonalLoop=1;jettySize=auto;html=1;exitX=0.5;exitY=1;exitDx=0;exitDy=0;entryX=0.5;entryY=0;entryDx=0;entryDy=0;" parent="1" source="ixGaKLChyozuG7cod_pc-8" edge="1" target="qSpFAjaBa0g86qrWprOc-3">
          <mxGeometry relative="1" as="geometry">
            <mxPoint x="1080" y="680" as="targetPoint" />
            <Array as="points">
              <mxPoint x="760" y="610" />
              <mxPoint x="760" y="610" />
            </Array>
          </mxGeometry>
        </mxCell>
        <mxCell id="ixGaKLChyozuG7cod_pc-29" value="&lt;div style=&quot;color: rgb(204, 204, 204); font-family: &amp;quot;Droid Sans Mono&amp;quot;, &amp;quot;monospace&amp;quot;, monospace; font-weight: normal; font-size: 14px; line-height: 19px; white-space: pre;&quot;&gt;&lt;div&gt;&lt;font color=&quot;#000000&quot;&gt;/localization/pose_estimator/pose_with_covariance&lt;/font&gt;&lt;/div&gt;&lt;/div&gt;&lt;div&gt;发布ndt匹配结果pose_with_covariance&lt;/div&gt;" style="edgeLabel;html=1;align=center;verticalAlign=middle;resizable=0;points=[];" parent="ixGaKLChyozuG7cod_pc-28" vertex="1" connectable="0">
          <mxGeometry x="0.5951" y="2" relative="1" as="geometry">
            <mxPoint x="58" y="-97" as="offset" />
          </mxGeometry>
        </mxCell>
        <mxCell id="ixGaKLChyozuG7cod_pc-8" value="ndt_scan_matcher" style="rounded=1;whiteSpace=wrap;html=1;fillColor=#dae8fc;strokeColor=#6c8ebf;" parent="1" vertex="1">
          <mxGeometry x="700" y="460" width="120" height="60" as="geometry" />
        </mxCell>
        <mxCell id="ixGaKLChyozuG7cod_pc-11" value="&lt;div&gt;使用init_srv服务接收gnss的pose&lt;/div&gt;&lt;div&gt;状态变为INITIALIZING&lt;/div&gt;&lt;div&gt;调用ndt-&amp;gt;align_pose()，&lt;/div&gt;&lt;div&gt;pub_reset发布 /initialpose3d&lt;/div&gt;" style="text;html=1;align=center;verticalAlign=middle;whiteSpace=wrap;rounded=0;" parent="1" vertex="1">
          <mxGeometry x="65" y="420" width="280" height="100" as="geometry" />
        </mxCell>
        <mxCell id="ixGaKLChyozuG7cod_pc-16" value="" style="endArrow=classic;html=1;rounded=0;" parent="1" edge="1">
          <mxGeometry width="50" height="50" relative="1" as="geometry">
            <mxPoint x="770" y="920" as="sourcePoint" />
            <mxPoint x="760" y="439" as="targetPoint" />
            <Array as="points">
              <mxPoint x="1380" y="920" />
              <mxPoint x="1380" y="439" />
            </Array>
          </mxGeometry>
        </mxCell>
        <mxCell id="ixGaKLChyozuG7cod_pc-17" value="&lt;div style=&quot;font-family: &amp;quot;Droid Sans Mono&amp;quot;, &amp;quot;monospace&amp;quot;, monospace; font-weight: normal; font-size: 14px; line-height: 19px; white-space: pre;&quot;&gt;&lt;div&gt;localization/pose_twist_fusion_filter/biased_pose_with_covariance&lt;/div&gt;&lt;/div&gt;" style="edgeLabel;html=1;align=center;verticalAlign=middle;resizable=0;points=[];" parent="ixGaKLChyozuG7cod_pc-16" vertex="1" connectable="0">
          <mxGeometry x="-0.3246" y="3" relative="1" as="geometry">
            <mxPoint x="29" y="-23" as="offset" />
          </mxGeometry>
        </mxCell>
        <mxCell id="ixGaKLChyozuG7cod_pc-19" value="" style="edgeStyle=orthogonalEdgeStyle;rounded=0;orthogonalLoop=1;jettySize=auto;html=1;" parent="1" source="ixGaKLChyozuG7cod_pc-18" target="ixGaKLChyozuG7cod_pc-8" edge="1">
          <mxGeometry relative="1" as="geometry" />
        </mxCell>
        <mxCell id="ixGaKLChyozuG7cod_pc-20" value="&lt;div style=&quot;color: rgb(204, 204, 204); font-family: &amp;quot;Droid Sans Mono&amp;quot;, &amp;quot;monospace&amp;quot;, monospace; font-weight: normal; font-size: 14px; line-height: 19px; white-space: pre;&quot;&gt;&lt;div&gt;&lt;font color=&quot;#000000&quot;&gt;/localization/util/downsample/pointcloud&lt;/font&gt;&lt;/div&gt;&lt;/div&gt;&lt;div&gt;&lt;br&gt;&lt;/div&gt;&lt;div&gt;在initial_pose_msg_ptr_array_中找初始位姿并使用位姿插值器根据当前时间计算初始位姿&lt;/div&gt;" style="edgeLabel;html=1;align=center;verticalAlign=middle;resizable=0;points=[];" parent="ixGaKLChyozuG7cod_pc-19" vertex="1" connectable="0">
          <mxGeometry x="-0.0152" y="2" relative="1" as="geometry">
            <mxPoint y="-19" as="offset" />
          </mxGeometry>
        </mxCell>
        <mxCell id="ixGaKLChyozuG7cod_pc-18" value="ndt_scan_matcher" style="rounded=1;whiteSpace=wrap;html=1;fillColor=#dae8fc;strokeColor=#6c8ebf;" parent="1" vertex="1">
          <mxGeometry x="700" y="240" width="120" height="60" as="geometry" />
        </mxCell>
        <mxCell id="ixGaKLChyozuG7cod_pc-21" value="" style="endArrow=classic;html=1;rounded=0;entryX=1;entryY=0.75;entryDx=0;entryDy=0;" parent="1" target="ixGaKLChyozuG7cod_pc-8" edge="1">
          <mxGeometry width="50" height="50" relative="1" as="geometry">
            <mxPoint x="1230" y="505" as="sourcePoint" />
            <mxPoint x="970" y="490" as="targetPoint" />
            <Array as="points">
              <mxPoint x="1030" y="505" />
            </Array>
          </mxGeometry>
        </mxCell>
        <mxCell id="ixGaKLChyozuG7cod_pc-22" value="&lt;div style=&quot;font-family: &amp;quot;Droid Sans Mono&amp;quot;, &amp;quot;monospace&amp;quot;, monospace; font-weight: normal; font-size: 14px; line-height: 19px; white-space: pre;&quot;&gt;&lt;div&gt;/sensing/gnss/pose_with_covariance&lt;/div&gt;&lt;/div&gt;" style="edgeLabel;html=1;align=center;verticalAlign=middle;resizable=0;points=[];" parent="ixGaKLChyozuG7cod_pc-21" vertex="1" connectable="0">
          <mxGeometry x="0.1004" y="-2" relative="1" as="geometry">
            <mxPoint x="36" y="-13" as="offset" />
          </mxGeometry>
        </mxCell>
        <mxCell id="ixGaKLChyozuG7cod_pc-24" value="" style="endArrow=classic;html=1;rounded=0;exitX=0.5;exitY=1;exitDx=0;exitDy=0;" parent="1" source="ixGaKLChyozuG7cod_pc-8" edge="1">
          <mxGeometry width="50" height="50" relative="1" as="geometry">
            <mxPoint x="760" y="550" as="sourcePoint" />
            <mxPoint x="500" y="700" as="targetPoint" />
            <Array as="points">
              <mxPoint x="760" y="580" />
              <mxPoint x="500" y="580" />
            </Array>
          </mxGeometry>
        </mxCell>
        <mxCell id="ixGaKLChyozuG7cod_pc-25" value="&lt;div&gt;/points_aligned&lt;/div&gt;ndt匹配输出的点云，frame为map" style="edgeLabel;html=1;align=center;verticalAlign=middle;resizable=0;points=[];" parent="ixGaKLChyozuG7cod_pc-24" vertex="1" connectable="0">
          <mxGeometry x="-0.0339" y="2" relative="1" as="geometry">
            <mxPoint x="-118" y="48" as="offset" />
          </mxGeometry>
        </mxCell>
        <mxCell id="ixGaKLChyozuG7cod_pc-33" style="edgeStyle=orthogonalEdgeStyle;rounded=0;orthogonalLoop=1;jettySize=auto;html=1;exitX=0.5;exitY=1;exitDx=0;exitDy=0;" parent="1" edge="1">
          <mxGeometry relative="1" as="geometry">
            <mxPoint x="1280" y="700" as="targetPoint" />
            <mxPoint x="760" y="520" as="sourcePoint" />
            <Array as="points">
              <mxPoint x="760" y="550" />
              <mxPoint x="1280" y="550" />
              <mxPoint x="1280" y="690" />
            </Array>
          </mxGeometry>
        </mxCell>
        <mxCell id="ixGaKLChyozuG7cod_pc-34" value="&lt;div style=&quot;color: rgb(204, 204, 204); font-family: &amp;quot;Droid Sans Mono&amp;quot;, &amp;quot;monospace&amp;quot;, monospace; font-weight: normal; font-size: 14px; line-height: 19px; white-space: pre;&quot;&gt;&lt;div&gt;&lt;font color=&quot;#000000&quot;&gt;/initial_pose_with_covariance&lt;/font&gt;&lt;/div&gt;&lt;/div&gt;&lt;div&gt;&lt;br&gt;&lt;/div&gt;&lt;div&gt;插值后的位姿&lt;br&gt;&lt;/div&gt;" style="edgeLabel;html=1;align=center;verticalAlign=middle;resizable=0;points=[];" parent="ixGaKLChyozuG7cod_pc-33" vertex="1" connectable="0">
          <mxGeometry x="0.5951" y="2" relative="1" as="geometry">
            <mxPoint x="28" y="72" as="offset" />
          </mxGeometry>
        </mxCell>
        <mxCell id="qSpFAjaBa0g86qrWprOc-3" value="ekf_localizer" style="rounded=1;whiteSpace=wrap;html=1;fillColor=#dae8fc;strokeColor=#6c8ebf;" vertex="1" parent="1">
          <mxGeometry x="700" y="830" width="120" height="60" as="geometry" />
        </mxCell>
        <mxCell id="qSpFAjaBa0g86qrWprOc-4" value="" style="endArrow=classic;html=1;rounded=0;exitX=1;exitY=0.5;exitDx=0;exitDy=0;entryX=0;entryY=0.5;entryDx=0;entryDy=0;" edge="1" parent="1" source="ixGaKLChyozuG7cod_pc-1" target="qSpFAjaBa0g86qrWprOc-3">
          <mxGeometry width="50" height="50" relative="1" as="geometry">
            <mxPoint x="880" y="630" as="sourcePoint" />
            <mxPoint x="930" y="580" as="targetPoint" />
            <Array as="points">
              <mxPoint x="590" y="410" />
              <mxPoint x="590" y="860" />
            </Array>
          </mxGeometry>
        </mxCell>
        <mxCell id="qSpFAjaBa0g86qrWprOc-5" value="/initialpose3d" style="edgeLabel;html=1;align=center;verticalAlign=middle;resizable=0;points=[];" vertex="1" connectable="0" parent="qSpFAjaBa0g86qrWprOc-4">
          <mxGeometry x="0.3493" y="-1" relative="1" as="geometry">
            <mxPoint as="offset" />
          </mxGeometry>
        </mxCell>
        <mxCell id="qSpFAjaBa0g86qrWprOc-8" value="" style="endArrow=classic;html=1;rounded=0;entryX=1;entryY=0.5;entryDx=0;entryDy=0;exitX=0.5;exitY=1;exitDx=0;exitDy=0;" edge="1" parent="1" source="qSpFAjaBa0g86qrWprOc-10" target="qSpFAjaBa0g86qrWprOc-3">
          <mxGeometry width="50" height="50" relative="1" as="geometry">
            <mxPoint x="1110" y="860" as="sourcePoint" />
            <mxPoint x="1120" y="720" as="targetPoint" />
            <Array as="points">
              <mxPoint x="1560" y="860" />
            </Array>
          </mxGeometry>
        </mxCell>
        <mxCell id="qSpFAjaBa0g86qrWprOc-9" value="&lt;div style=&quot;color: rgb(204, 204, 204); font-weight: normal; font-size: 10px; line-height: 19px; white-space: pre;&quot;&gt;&lt;div style=&quot;font-size: 10px;&quot;&gt;&lt;font color=&quot;#000000&quot; face=&quot;Helvetica&quot; style=&quot;font-size: 10px;&quot;&gt;&lt;span style=&quot;background-color: rgb(255, 255, 255); font-size: 10px;&quot;&gt;/localization/twist_estimator/twist_with_covariance&lt;/span&gt;&lt;/font&gt;&lt;/div&gt;&lt;/div&gt;" style="edgeLabel;html=1;align=center;verticalAlign=middle;resizable=0;points=[];fontSize=10;" vertex="1" connectable="0" parent="qSpFAjaBa0g86qrWprOc-8">
          <mxGeometry x="-0.2241" y="1" relative="1" as="geometry">
            <mxPoint x="69" y="-171" as="offset" />
          </mxGeometry>
        </mxCell>
        <mxCell id="qSpFAjaBa0g86qrWprOc-10" value="gyro_odometer" style="rounded=1;whiteSpace=wrap;html=1;fillColor=#dae8fc;strokeColor=#6c8ebf;" vertex="1" parent="1">
          <mxGeometry x="1500" y="460" width="120" height="60" as="geometry" />
        </mxCell>
        <mxCell id="qSpFAjaBa0g86qrWprOc-12" value="&lt;div&gt;设置一个定时器来周期性地调用预测和更新函数&lt;/div&gt;&lt;div&gt;timer_control_ = rclcpp::&lt;span class=&quot;hljs-built_in&quot;&gt;create_timer&lt;/span&gt;(&lt;/div&gt;    &lt;span class=&quot;hljs-keyword&quot;&gt;this&lt;/span&gt;, &lt;span class=&quot;hljs-built_in&quot;&gt;get_clock&lt;/span&gt;(), rclcpp::Duration::&lt;span class=&quot;hljs-built_in&quot;&gt;from_seconds&lt;/span&gt;(ekf_dt_),&lt;br&gt;&lt;div&gt;    std::&lt;span class=&quot;hljs-built_in&quot;&gt;bind&lt;/span&gt;(&amp;amp;EKFLocalizer::timerCallback, &lt;span class=&quot;hljs-keyword&quot;&gt;this&lt;/span&gt;));&lt;/div&gt;&lt;div&gt;&lt;br&gt;&lt;/div&gt;&lt;div&gt;发布了map到base_link的tf&lt;br&gt;&lt;/div&gt;" style="text;html=1;align=center;verticalAlign=middle;whiteSpace=wrap;rounded=0;" vertex="1" parent="1">
          <mxGeometry x="180" y="760" width="490" height="210" as="geometry" />
        </mxCell>
        <mxCell id="qSpFAjaBa0g86qrWprOc-13" value="" style="endArrow=classic;html=1;rounded=0;exitX=0.25;exitY=1;exitDx=0;exitDy=0;" edge="1" parent="1" source="qSpFAjaBa0g86qrWprOc-3">
          <mxGeometry width="50" height="50" relative="1" as="geometry">
            <mxPoint x="650" y="890" as="sourcePoint" />
            <mxPoint x="460" y="1050" as="targetPoint" />
            <Array as="points">
              <mxPoint x="730" y="930" />
              <mxPoint x="650" y="930" />
              <mxPoint x="460" y="930" />
            </Array>
          </mxGeometry>
        </mxCell>
        <mxCell id="qSpFAjaBa0g86qrWprOc-14" value="localization/pose_twist_fusion_filter/pose" style="edgeLabel;html=1;align=center;verticalAlign=middle;resizable=0;points=[];" vertex="1" connectable="0" parent="qSpFAjaBa0g86qrWprOc-13">
          <mxGeometry x="0.0958" y="2" relative="1" as="geometry">
            <mxPoint x="-54" y="38" as="offset" />
          </mxGeometry>
        </mxCell>
        <mxCell id="qSpFAjaBa0g86qrWprOc-15" value="" style="endArrow=classic;html=1;rounded=0;exitX=0.25;exitY=1;exitDx=0;exitDy=0;" edge="1" parent="1">
          <mxGeometry width="50" height="50" relative="1" as="geometry">
            <mxPoint x="750" y="890" as="sourcePoint" />
            <mxPoint x="750" y="990" as="targetPoint" />
          </mxGeometry>
        </mxCell>
        <mxCell id="qSpFAjaBa0g86qrWprOc-16" value="&lt;div style=&quot;font-family: &amp;quot;Droid Sans Mono&amp;quot;, &amp;quot;monospace&amp;quot;, monospace; font-weight: normal; line-height: 19px; white-space: pre; font-size: 13px;&quot;&gt;&lt;div&gt;&lt;font color=&quot;#999999&quot; style=&quot;font-size: 10px;&quot;&gt;/localization/pose_with_covariance&lt;/font&gt;&lt;/div&gt;&lt;/div&gt;" style="edgeLabel;html=1;align=center;verticalAlign=middle;resizable=0;points=[];" vertex="1" connectable="0" parent="qSpFAjaBa0g86qrWprOc-15">
          <mxGeometry x="0.0958" y="2" relative="1" as="geometry">
            <mxPoint x="-52" y="12" as="offset" />
          </mxGeometry>
        </mxCell>
        <mxCell id="qSpFAjaBa0g86qrWprOc-17" value="" style="endArrow=classic;html=1;rounded=0;exitX=0.59;exitY=1.004;exitDx=0;exitDy=0;exitPerimeter=0;entryX=0.5;entryY=0;entryDx=0;entryDy=0;" edge="1" parent="1" source="qSpFAjaBa0g86qrWprOc-3" target="qSpFAjaBa0g86qrWprOc-32">
          <mxGeometry width="50" height="50" relative="1" as="geometry">
            <mxPoint x="770" y="890" as="sourcePoint" />
            <mxPoint x="840" y="1050" as="targetPoint" />
            <Array as="points">
              <mxPoint x="770" y="920" />
              <mxPoint x="840" y="920" />
            </Array>
          </mxGeometry>
        </mxCell>
        <mxCell id="qSpFAjaBa0g86qrWprOc-18" value="localization/pose_twist_fusion_filter/kinematic_state" style="edgeLabel;html=1;align=center;verticalAlign=middle;resizable=0;points=[];" vertex="1" connectable="0" parent="qSpFAjaBa0g86qrWprOc-17">
          <mxGeometry x="0.0958" y="2" relative="1" as="geometry">
            <mxPoint x="-2" y="34" as="offset" />
          </mxGeometry>
        </mxCell>
        <mxCell id="qSpFAjaBa0g86qrWprOc-19" value="" style="endArrow=classic;html=1;rounded=0;exitX=0.25;exitY=1;exitDx=0;exitDy=0;" edge="1" parent="1" source="qSpFAjaBa0g86qrWprOc-3">
          <mxGeometry width="50" height="50" relative="1" as="geometry">
            <mxPoint x="630" y="890" as="sourcePoint" />
            <mxPoint x="360" y="1000" as="targetPoint" />
            <Array as="points">
              <mxPoint x="730" y="930" />
              <mxPoint x="630" y="930" />
              <mxPoint x="550" y="930" />
              <mxPoint x="360" y="930" />
            </Array>
          </mxGeometry>
        </mxCell>
        <mxCell id="qSpFAjaBa0g86qrWprOc-20" value="&lt;font color=&quot;#999999&quot;&gt;localization/pose_twist_fusion_filter/twist&lt;/font&gt;" style="edgeLabel;html=1;align=center;verticalAlign=middle;resizable=0;points=[];" vertex="1" connectable="0" parent="qSpFAjaBa0g86qrWprOc-19">
          <mxGeometry x="0.0958" y="2" relative="1" as="geometry">
            <mxPoint x="-150" y="78" as="offset" />
          </mxGeometry>
        </mxCell>
        <mxCell id="qSpFAjaBa0g86qrWprOc-21" value="" style="endArrow=classic;html=1;rounded=0;exitX=0.585;exitY=0.999;exitDx=0;exitDy=0;exitPerimeter=0;" edge="1" parent="1" source="qSpFAjaBa0g86qrWprOc-3">
          <mxGeometry width="50" height="50" relative="1" as="geometry">
            <mxPoint x="770" y="890" as="sourcePoint" />
            <mxPoint x="930" y="990" as="targetPoint" />
            <Array as="points">
              <mxPoint x="770" y="920" />
              <mxPoint x="930" y="920" />
            </Array>
          </mxGeometry>
        </mxCell>
        <mxCell id="qSpFAjaBa0g86qrWprOc-22" value="&lt;font color=&quot;#999999&quot;&gt;/&lt;font style=&quot;white-space: pre;&quot; size=&quot;1&quot;&gt;&lt;span style=&quot;&quot;&gt;twist_with_covariance&lt;/span&gt;&lt;/font&gt;&lt;/font&gt;" style="edgeLabel;html=1;align=center;verticalAlign=middle;resizable=0;points=[];labelBackgroundColor=none;" vertex="1" connectable="0" parent="qSpFAjaBa0g86qrWprOc-21">
          <mxGeometry x="0.4352" y="1" relative="1" as="geometry">
            <mxPoint x="9" y="36" as="offset" />
          </mxGeometry>
        </mxCell>
        <mxCell id="qSpFAjaBa0g86qrWprOc-25" value="" style="endArrow=classic;html=1;rounded=0;exitX=0.585;exitY=1.002;exitDx=0;exitDy=0;exitPerimeter=0;" edge="1" parent="1" source="qSpFAjaBa0g86qrWprOc-3">
          <mxGeometry width="50" height="50" relative="1" as="geometry">
            <mxPoint x="770.8000000000002" y="886.7199999999998" as="sourcePoint" />
            <mxPoint x="1020" y="990" as="targetPoint" />
            <Array as="points">
              <mxPoint x="770" y="920" />
              <mxPoint x="1020" y="920.2" />
            </Array>
          </mxGeometry>
        </mxCell>
        <mxCell id="qSpFAjaBa0g86qrWprOc-26" value="&lt;font&gt;/biased_pose&lt;/font&gt;" style="edgeLabel;html=1;align=center;verticalAlign=middle;resizable=0;points=[];labelBackgroundColor=none;fontColor=#999999;" vertex="1" connectable="0" parent="qSpFAjaBa0g86qrWprOc-25">
          <mxGeometry x="0.4352" y="1" relative="1" as="geometry">
            <mxPoint x="39" y="41" as="offset" />
          </mxGeometry>
        </mxCell>
        <mxCell id="qSpFAjaBa0g86qrWprOc-30" value="&lt;div style=&quot;font-family: &amp;quot;Droid Sans Mono&amp;quot;, &amp;quot;monospace&amp;quot;, monospace; font-weight: normal; font-size: 14px; line-height: 19px; white-space: pre;&quot;&gt;&lt;div&gt;localization/pose_twist_fusion_filter/biased_pose_with_covariance&lt;/div&gt;&lt;/div&gt;" style="edgeLabel;html=1;align=center;verticalAlign=middle;resizable=0;points=[];" vertex="1" connectable="0" parent="1">
          <mxGeometry x="1150.0047368421056" y="420" as="geometry" />
        </mxCell>
        <mxCell id="qSpFAjaBa0g86qrWprOc-32" value="stop_filter" style="rounded=1;whiteSpace=wrap;html=1;fillColor=#dae8fc;strokeColor=#6c8ebf;" vertex="1" parent="1">
          <mxGeometry x="780" y="1090" width="120" height="60" as="geometry" />
        </mxCell>
        <mxCell id="qSpFAjaBa0g86qrWprOc-33" value="" style="endArrow=classic;html=1;rounded=0;exitX=0.5;exitY=1;exitDx=0;exitDy=0;entryX=0;entryY=0.5;entryDx=0;entryDy=0;" edge="1" parent="1" source="qSpFAjaBa0g86qrWprOc-32" target="qSpFAjaBa0g86qrWprOc-35">
          <mxGeometry width="50" height="50" relative="1" as="geometry">
            <mxPoint x="1000" y="1180" as="sourcePoint" />
            <mxPoint x="840" y="1260" as="targetPoint" />
            <Array as="points">
              <mxPoint x="840" y="1210" />
            </Array>
          </mxGeometry>
        </mxCell>
        <mxCell id="qSpFAjaBa0g86qrWprOc-34" value="/localization/kinematic_state" style="edgeLabel;html=1;align=center;verticalAlign=middle;resizable=0;points=[];" vertex="1" connectable="0" parent="qSpFAjaBa0g86qrWprOc-33">
          <mxGeometry x="-0.2909" y="1" relative="1" as="geometry">
            <mxPoint x="182" y="-9" as="offset" />
          </mxGeometry>
        </mxCell>
        <mxCell id="qSpFAjaBa0g86qrWprOc-35" value="obstacle_stop_planner" style="rounded=1;whiteSpace=wrap;html=1;fillColor=#fff2cc;strokeColor=#d6b656;" vertex="1" parent="1">
          <mxGeometry x="2450" y="1175" width="150" height="60" as="geometry" />
        </mxCell>
        <mxCell id="qSpFAjaBa0g86qrWprOc-36" value="" style="endArrow=classic;html=1;rounded=0;exitX=1;exitY=0.5;exitDx=0;exitDy=0;entryX=0;entryY=0.5;entryDx=0;entryDy=0;" edge="1" parent="1" source="qSpFAjaBa0g86qrWprOc-35" target="qSpFAjaBa0g86qrWprOc-50">
          <mxGeometry width="50" height="50" relative="1" as="geometry">
            <mxPoint x="2260" y="1105" as="sourcePoint" />
            <mxPoint x="2880" y="1205" as="targetPoint" />
          </mxGeometry>
        </mxCell>
        <mxCell id="qSpFAjaBa0g86qrWprOc-37" value="/planning/scenario_planning/lane_driving/trajectory" style="edgeLabel;html=1;align=center;verticalAlign=middle;resizable=0;points=[];" vertex="1" connectable="0" parent="qSpFAjaBa0g86qrWprOc-36">
          <mxGeometry x="-0.0757" relative="1" as="geometry">
            <mxPoint x="23" y="-20" as="offset" />
          </mxGeometry>
        </mxCell>
        <mxCell id="qSpFAjaBa0g86qrWprOc-41" value="" style="endArrow=classic;html=1;rounded=0;" edge="1" parent="1">
          <mxGeometry width="50" height="50" relative="1" as="geometry">
            <mxPoint x="2160" y="855" as="sourcePoint" />
            <mxPoint x="2160" y="1205" as="targetPoint" />
            <Array as="points">
              <mxPoint x="2160" y="1205" />
            </Array>
          </mxGeometry>
        </mxCell>
        <mxCell id="qSpFAjaBa0g86qrWprOc-43" value="" style="endArrow=classic;html=1;rounded=0;entryX=0;entryY=0.5;entryDx=0;entryDy=0;exitX=0.5;exitY=1;exitDx=0;exitDy=0;" edge="1" parent="1" source="qSpFAjaBa0g86qrWprOc-61" target="qSpFAjaBa0g86qrWprOc-35">
          <mxGeometry width="50" height="50" relative="1" as="geometry">
            <mxPoint x="2350" y="935" as="sourcePoint" />
            <mxPoint x="2310" y="1055" as="targetPoint" />
            <Array as="points">
              <mxPoint x="2350" y="1205" />
            </Array>
          </mxGeometry>
        </mxCell>
        <mxCell id="qSpFAjaBa0g86qrWprOc-44" value="&lt;div&gt;/planning/scenario_planning_lane_driving&lt;/div&gt;&lt;div&gt;/motion_planning/obstacle_avoidance_planner&lt;/div&gt;&lt;div&gt;/trajectory&lt;/div&gt;" style="edgeLabel;html=1;align=center;verticalAlign=middle;resizable=0;points=[];" vertex="1" connectable="0" parent="qSpFAjaBa0g86qrWprOc-43">
          <mxGeometry x="-0.5292" y="1" relative="1" as="geometry">
            <mxPoint x="19" y="63" as="offset" />
          </mxGeometry>
        </mxCell>
        <mxCell id="qSpFAjaBa0g86qrWprOc-45" value="" style="endArrow=classic;html=1;rounded=0;entryX=0.25;entryY=0;entryDx=0;entryDy=0;" edge="1" parent="1" target="qSpFAjaBa0g86qrWprOc-35">
          <mxGeometry width="50" height="50" relative="1" as="geometry">
            <mxPoint x="2488" y="935" as="sourcePoint" />
            <mxPoint x="2410" y="875" as="targetPoint" />
          </mxGeometry>
        </mxCell>
        <mxCell id="qSpFAjaBa0g86qrWprOc-46" value="/localization/acceleration" style="edgeLabel;html=1;align=center;verticalAlign=middle;resizable=0;points=[];" vertex="1" connectable="0" parent="qSpFAjaBa0g86qrWprOc-45">
          <mxGeometry x="-0.5101" y="2" relative="1" as="geometry">
            <mxPoint y="141" as="offset" />
          </mxGeometry>
        </mxCell>
        <mxCell id="qSpFAjaBa0g86qrWprOc-78" style="edgeStyle=orthogonalEdgeStyle;rounded=0;orthogonalLoop=1;jettySize=auto;html=1;exitX=0.5;exitY=0;exitDx=0;exitDy=0;entryX=1;entryY=0.5;entryDx=0;entryDy=0;" edge="1" parent="1" source="qSpFAjaBa0g86qrWprOc-50" target="qSpFAjaBa0g86qrWprOc-71">
          <mxGeometry relative="1" as="geometry">
            <mxPoint x="2990" y="300" as="targetPoint" />
          </mxGeometry>
        </mxCell>
        <mxCell id="qSpFAjaBa0g86qrWprOc-79" value="/planning/scenario_planning/scenario" style="edgeLabel;html=1;align=center;verticalAlign=middle;resizable=0;points=[];" vertex="1" connectable="0" parent="qSpFAjaBa0g86qrWprOc-78">
          <mxGeometry x="0.6569" y="2" relative="1" as="geometry">
            <mxPoint as="offset" />
          </mxGeometry>
        </mxCell>
        <mxCell id="qSpFAjaBa0g86qrWprOc-50" value="scenario_selector" style="rounded=1;whiteSpace=wrap;html=1;fillColor=#fff2cc;strokeColor=#d6b656;" vertex="1" parent="1">
          <mxGeometry x="2950" y="1175" width="150" height="60" as="geometry" />
        </mxCell>
        <mxCell id="qSpFAjaBa0g86qrWprOc-51" value="" style="endArrow=classic;html=1;rounded=0;exitX=1;exitY=0.5;exitDx=0;exitDy=0;entryX=0;entryY=0.5;entryDx=0;entryDy=0;" edge="1" parent="1" source="qSpFAjaBa0g86qrWprOc-50" target="qSpFAjaBa0g86qrWprOc-52">
          <mxGeometry width="50" height="50" relative="1" as="geometry">
            <mxPoint x="2870" y="1195" as="sourcePoint" />
            <mxPoint x="3360" y="1205" as="targetPoint" />
          </mxGeometry>
        </mxCell>
        <mxCell id="qSpFAjaBa0g86qrWprOc-53" value="/planning/scenario_planning/scenario_selector/trajectory" style="edgeLabel;html=1;align=center;verticalAlign=middle;resizable=0;points=[];" vertex="1" connectable="0" parent="qSpFAjaBa0g86qrWprOc-51">
          <mxGeometry x="0.0686" y="1" relative="1" as="geometry">
            <mxPoint y="-19" as="offset" />
          </mxGeometry>
        </mxCell>
        <mxCell id="qSpFAjaBa0g86qrWprOc-52" value="motion_velocity_smoother" style="rounded=1;whiteSpace=wrap;html=1;fillColor=#fff2cc;strokeColor=#d6b656;" vertex="1" parent="1">
          <mxGeometry x="3470" y="1175" width="200" height="60" as="geometry" />
        </mxCell>
        <mxCell id="qSpFAjaBa0g86qrWprOc-54" value="" style="endArrow=classic;html=1;rounded=0;exitX=1;exitY=0.5;exitDx=0;exitDy=0;entryX=0;entryY=0.5;entryDx=0;entryDy=0;" edge="1" parent="1" source="qSpFAjaBa0g86qrWprOc-52" target="qSpFAjaBa0g86qrWprOc-55">
          <mxGeometry width="50" height="50" relative="1" as="geometry">
            <mxPoint x="3480" y="1125" as="sourcePoint" />
            <mxPoint x="3830" y="1205" as="targetPoint" />
          </mxGeometry>
        </mxCell>
        <mxCell id="qSpFAjaBa0g86qrWprOc-56" value="/planning_scenario_planning/trajectory" style="edgeLabel;html=1;align=center;verticalAlign=middle;resizable=0;points=[];" vertex="1" connectable="0" parent="qSpFAjaBa0g86qrWprOc-54">
          <mxGeometry x="0.1579" relative="1" as="geometry">
            <mxPoint x="-22" y="-20" as="offset" />
          </mxGeometry>
        </mxCell>
        <mxCell id="qSpFAjaBa0g86qrWprOc-55" value="simple_trajectory_follower" style="rounded=1;whiteSpace=wrap;html=1;fillColor=#fff2cc;strokeColor=#d6b656;" vertex="1" parent="1">
          <mxGeometry x="3950" y="1175" width="200" height="60" as="geometry" />
        </mxCell>
        <mxCell id="qSpFAjaBa0g86qrWprOc-60" value="&lt;div&gt;使用NDT算法对车辆进行定位&lt;/div&gt;" style="text;whiteSpace=wrap;html=1;align=center;" vertex="1" parent="1">
          <mxGeometry x="480" y="500" width="240" height="40" as="geometry" />
        </mxCell>
        <mxCell id="qSpFAjaBa0g86qrWprOc-61" value="obstacle_avoidance_planner" style="rounded=1;whiteSpace=wrap;html=1;fillColor=#fff2cc;strokeColor=#d6b656;" vertex="1" parent="1">
          <mxGeometry x="2240" y="830" width="220" height="60" as="geometry" />
        </mxCell>
        <mxCell id="qSpFAjaBa0g86qrWprOc-62" value="" style="endArrow=classic;html=1;rounded=0;entryX=0;entryY=0.5;entryDx=0;entryDy=0;" edge="1" parent="1" target="qSpFAjaBa0g86qrWprOc-61">
          <mxGeometry width="50" height="50" relative="1" as="geometry">
            <mxPoint x="2020" y="760" as="sourcePoint" />
            <mxPoint x="2250" y="1045" as="targetPoint" />
            <Array as="points">
              <mxPoint x="2160" y="760" />
              <mxPoint x="2160" y="860" />
            </Array>
          </mxGeometry>
        </mxCell>
        <mxCell id="qSpFAjaBa0g86qrWprOc-64" value="" style="endArrow=classic;html=1;rounded=0;" edge="1" parent="1">
          <mxGeometry width="50" height="50" relative="1" as="geometry">
            <mxPoint x="2260" y="1415" as="sourcePoint" />
            <mxPoint x="2260" y="1205" as="targetPoint" />
          </mxGeometry>
        </mxCell>
        <mxCell id="qSpFAjaBa0g86qrWprOc-65" value="/perception/obstacle_segmentation/pointcloud" style="edgeLabel;html=1;align=center;verticalAlign=middle;resizable=0;points=[];" vertex="1" connectable="0" parent="qSpFAjaBa0g86qrWprOc-64">
          <mxGeometry x="-0.4628" relative="1" as="geometry">
            <mxPoint x="30" as="offset" />
          </mxGeometry>
        </mxCell>
        <mxCell id="qSpFAjaBa0g86qrWprOc-67" value="/perception/object_recognition/objects" style="edgeLabel;html=1;align=center;verticalAlign=middle;resizable=0;points=[];" vertex="1" connectable="0" parent="1">
          <mxGeometry x="2050" y="720" as="geometry" />
        </mxCell>
        <mxCell id="qSpFAjaBa0g86qrWprOc-69" style="edgeStyle=orthogonalEdgeStyle;rounded=0;orthogonalLoop=1;jettySize=auto;html=1;exitX=0.5;exitY=1;exitDx=0;exitDy=0;" edge="1" parent="1" source="qSpFAjaBa0g86qrWprOc-68" target="qSpFAjaBa0g86qrWprOc-61">
          <mxGeometry relative="1" as="geometry" />
        </mxCell>
        <mxCell id="qSpFAjaBa0g86qrWprOc-70" value="/planning/scenario_planning/lane_driving/behavior_planning/path" style="edgeLabel;html=1;align=center;verticalAlign=middle;resizable=0;points=[];" vertex="1" connectable="0" parent="qSpFAjaBa0g86qrWprOc-69">
          <mxGeometry x="-0.6454" y="-1" relative="1" as="geometry">
            <mxPoint x="1" y="25" as="offset" />
          </mxGeometry>
        </mxCell>
        <mxCell id="qSpFAjaBa0g86qrWprOc-68" value="behavior_velocity_planner" style="rounded=1;whiteSpace=wrap;html=1;fillColor=#fff2cc;strokeColor=#d6b656;" vertex="1" parent="1">
          <mxGeometry x="2257.5" y="545" width="185" height="60" as="geometry" />
        </mxCell>
        <mxCell id="qSpFAjaBa0g86qrWprOc-72" style="edgeStyle=orthogonalEdgeStyle;rounded=0;orthogonalLoop=1;jettySize=auto;html=1;exitX=0.5;exitY=1;exitDx=0;exitDy=0;" edge="1" parent="1" source="qSpFAjaBa0g86qrWprOc-71" target="qSpFAjaBa0g86qrWprOc-68">
          <mxGeometry relative="1" as="geometry" />
        </mxCell>
        <mxCell id="qSpFAjaBa0g86qrWprOc-73" value="/planning/scenario_planning/lane_driving/behavior_planning/path_with_lane_id" style="edgeLabel;html=1;align=center;verticalAlign=middle;resizable=0;points=[];" vertex="1" connectable="0" parent="qSpFAjaBa0g86qrWprOc-72">
          <mxGeometry x="-0.1459" y="-1" relative="1" as="geometry">
            <mxPoint as="offset" />
          </mxGeometry>
        </mxCell>
        <mxCell id="qSpFAjaBa0g86qrWprOc-71" value="behavior_path_planner" style="rounded=1;whiteSpace=wrap;html=1;fillColor=#fff2cc;strokeColor=#d6b656;fontStyle=0" vertex="1" parent="1">
          <mxGeometry x="2257.5" y="260" width="185" height="60" as="geometry" />
        </mxCell>
        <mxCell id="qSpFAjaBa0g86qrWprOc-75" style="edgeStyle=orthogonalEdgeStyle;rounded=0;orthogonalLoop=1;jettySize=auto;html=1;exitX=0.5;exitY=1;exitDx=0;exitDy=0;entryX=0.5;entryY=0;entryDx=0;entryDy=0;" edge="1" parent="1" source="qSpFAjaBa0g86qrWprOc-74" target="qSpFAjaBa0g86qrWprOc-71">
          <mxGeometry relative="1" as="geometry" />
        </mxCell>
        <mxCell id="qSpFAjaBa0g86qrWprOc-76" value="/occupancy_grip_map/map" style="edgeLabel;html=1;align=center;verticalAlign=middle;resizable=0;points=[];" vertex="1" connectable="0" parent="qSpFAjaBa0g86qrWprOc-75">
          <mxGeometry x="-0.0483" relative="1" as="geometry">
            <mxPoint as="offset" />
          </mxGeometry>
        </mxCell>
        <mxCell id="qSpFAjaBa0g86qrWprOc-74" value="occupancy_grid_map_node" style="rounded=1;whiteSpace=wrap;html=1;fillColor=#fff2cc;strokeColor=#d6b656;fontStyle=0" vertex="1" parent="1">
          <mxGeometry x="2257.5" y="-80" width="185" height="60" as="geometry" />
        </mxCell>
      </root>
    </mxGraphModel>
  </diagram>
</mxfile>
